<svg width="116" height="116" viewBox="0 0 116 116" fill="none" xmlns="http://www.w3.org/2000/svg">
<path d="M89.3345 81.0405C82.7281 82.6268 75.8315 82.55 69.2621 80.8168C62.6928 79.0837 56.6558 75.7484 51.6917 71.1095C46.7277 66.4707 42.9916 60.6732 40.8181 54.2361C38.6445 47.799 38.1012 40.9234 39.237 34.2249C39.0668 34.3945 38.8843 34.5512 38.6908 34.6937C37.3375 35.7232 35.6458 36.105 32.2625 36.8687L29.1933 37.5647C17.3033 40.2569 11.3583 41.6005 9.94216 46.1487C8.53083 50.692 12.5812 55.4335 20.6867 64.9117L22.7843 67.3622C25.085 70.0544 26.2402 71.4029 26.7573 73.0655C27.2745 74.733 27.1005 76.531 26.7525 80.1222L26.4335 83.3944C25.2107 96.0432 24.5968 102.365 28.2992 105.173C32.0015 107.982 37.5695 105.425 48.6958 100.297L51.5813 98.9722C54.7423 97.5125 56.3228 96.7875 58 96.7875C59.6772 96.7875 61.2577 97.5125 64.4235 98.9722L67.2993 100.297C78.4305 105.42 83.9985 107.982 87.696 105.178C91.4032 102.365 90.7893 96.0432 89.5665 83.3944L89.3345 81.0405Z" fill="black" style="fill:black;fill-opacity:1;"/>
<path opacity="0.5" d="M44.2395 26.1387L42.6542 28.9807C40.9142 32.103 40.0442 33.6642 38.6908 34.6937C38.8842 34.5487 39.0662 34.3924 39.237 34.2249C38.101 40.9239 38.6442 47.8001 40.818 54.2377C42.9918 60.6752 46.7284 66.4731 51.693 71.1121C56.6576 75.7511 62.6954 79.0863 69.2654 80.819C75.8354 82.5517 82.7327 82.6278 89.3393 81.0405L89.2427 80.1222C88.8995 76.531 88.7255 74.733 89.2427 73.0655C89.7598 71.4029 90.9102 70.0544 93.2157 67.3622L95.3133 64.9117C103.419 55.4384 107.469 50.6969 106.053 46.1487C104.642 41.6005 98.6967 40.252 86.8067 37.5647L83.7327 36.8687C80.3542 36.105 78.6625 35.7232 77.3044 34.6937C75.951 33.6642 75.081 32.103 73.341 28.9807L71.7605 26.1387C65.6367 15.1574 62.5772 9.66669 58 9.66669C53.4228 9.66669 50.3633 15.1574 44.2395 26.1387Z" fill="black" style="fill:black;fill-opacity:1;"/>
</svg>
